<?xml version="1.0" encoding="UTF-8"?>
<svg id="Livello_1" data-name="Livello 1" xmlns="http://www.w3.org/2000/svg" viewBox="0 0 1200 1200">
  <defs>
    <style>
      .cls-1 {
        fill: #005eb8;
      }

      .cls-2 {
        fill: #fff;
      }

      .cls-3 {
        fill: #f9b000;
      }
    </style>
  </defs>
  <circle class="cls-1" cx="600" cy="600" r="600"/>
  <g>
    <path class="cls-2" d="M719.16,997.69v-.7s-.14-.7-.28-.98v-.42l-2.24-39.58s0-.84-.28-1.12c-.98-2.94-11.75-27.69-86.99-13.15-24.62,4.76-45.87,10.35-64.76,15.38-20.56,5.31-37.06,9.65-50.63,11.05l1.54-8.11c.28-1.26,0-2.52-.84-3.5-.84-1.12-1.96-1.68-3.22-1.82-31.89-2.8-35.52,2.66-36.64,5.31-.28.56-.42,1.12-.42,1.82-.14,3.36-.56,17.62-.42,34.69-49.23-15.66-94.41-40.98-133.29-73.57l.56-33.15,3.36-177.9c45.31-9.51,42.52-42.52,40.56-64.62-.14-1.68-.42-3.22-.56-4.62h0c0-.14,0-.42-.14-.42-4.48-22.38-25.03-32.59-37.62-35.66v-5.73l1.82-86.15c37.06,8.67,58.74,33.01,65.87,74.55,7.41,43.22-2.52,78.88-9.93,105.17-2.52,9.37-4.9,17.48-6.01,24.62-4.9,29.65-4.9,95.66,31.05,133.85h0c6.01,6.43,12.73,11.75,20.14,16.08,23.22,13.43,44.06,25.31,62.66,32.87h.28c20.98,6.85,53.71,11.89,92.31,14.69,8.39.56,16.78,1.12,25.03,1.26h.14c9.37.42,18.46.42,27.27.42,23.92,0,45.03-1.26,58.88-3.64h0c3.36-.56,6.01-1.12,8.39-1.82,35.8-9.79,60.28-27.97,80.14-42.66.42-.28.7-.42.98-.7,68.95-51.61,92.59-117.06,101.68-141.82l1.12-3.22c.84-2.52-.42-5.03-2.66-6.01-2.38-.98-5.03.42-6.01,2.66l-1.12,3.22c-8.39,23.22-30.21,83.22-91.75,132.45-.28-12.45-.7-36.64-1.26-65.59,18.46-10.91,67.83-46.29,77.76-120,.42-2.52-1.4-4.9-3.92-5.31s-4.9,1.4-5.17,3.92c-8.81,64.34-48.95,97.76-68.95,110.49-.42-18.74-.7-39.02-1.12-59.44,57.34-23.08,73.57-84.9,80.7-111.75.42-1.68.84-3.22,1.12-4.62l6.43,1.96s.98.28,1.4.28c.98,0,1.82-.42,2.66-.98l18.74-13.71c-.28,28.11,2.8,84.2,69.79,127.13-11.05,41.12-28.67,79.58-51.47,114.55-6.01-30.91-1.12-66.85,2.38-91.47.98-6.43,1.68-12.31,2.24-17.06.28-2.52-1.68-4.76-4.06-5.03-2.52-.28-4.76,1.68-5.03,4.06-.42,4.76-1.26,10.35-2.1,16.78-3.78,27.55-9.37,68.95-.28,103.22-50.07,71.61-122.94,126.01-207.83,153.01M712.03,1045.52c-.98,2.1-3.5,4.62-7.41,4.76-6.85-.42-38.04-1.96-46.85,10.21-1.96-5.17-2.94-10.77-3.36-14.69,10.35-2.94,19.16-5.45,26.29-7.27,22.8-5.73,29.37-.42,30.91,1.4.42.42.56.84.7,1.12l.28,3.36s-.28.7-.56,1.12M666.29,1071.54s-.56-.42-.98-.56c-1.4-3.22-.56-4.62-.28-5.17,1.54-2.38,5.73-4.06,10.91-5.17,1.12,4.48,3.08,7.69,5.45,10.07-5.03,1.82-11.19,2.94-15.1.84M485.87,963.29c4.34-.56,11.75-.7,19.58-.28l-.98,5.31c-6.85,0-12.45-1.26-16.78-3.92-.56-.42-1.26-.84-1.82-1.12M489.37,1057.69c-6.29-13.85-6.85-59.72-6.29-85.59.14,0,.28.14.42.28,7.27,4.06,16.08,5.59,27.83,4.76,14.97-1.12,32.87-5.73,55.52-11.75,18.74-4.9,39.86-10.35,64.2-15.24,62.38-12.03,74.97,4.34,76.64,6.85l2.24,38.74s0,.7.28,1.12v.42l1.82,32.03c-6.29-2.66-16.5-3.64-33.15.56-8.25,2.1-18.88,5.17-31.33,8.67-51.61,14.97-137.34,39.58-158.18,19.16M252.87,819.09c5.31-21.68,7.41-44.2,6.43-67.13v-.98c-1.26-26.99-6.57-47.97-9.37-59.3-.7-2.66-1.12-4.76-1.54-6.15-.42-2.52-2.8-4.06-5.31-3.5-2.52.42-4.06,2.8-3.5,5.31.42,1.68.84,3.92,1.54,6.71,2.52,9.93,6.85,27.41,8.67,49.65-27.55-18.88-36.92-52.45-40-78.18-3.92-33.43,1.12-68.25,7.97-88.11,13.43-39.02,56.5-56.36,68.81-60.42,7.69,8.11,15.66,9.93,21.12,9.93h1.96c11.33-.98,22.52-9.65,30.07-22.66v4.34l-.98,45.73c-18.88,2.38-37.62,9.65-56.08,21.68,0,0-.14,0-.28.14-.14,0-.28.28-.42.28,0,0-.28.14-.28.28-27.55,18.18-47.13,42.52-56.36,55.38-1.4,1.96-.98,4.76,1.12,6.29.84.56,1.82.84,2.66.84,1.4,0,2.8-.7,3.64-1.82,8.53-11.75,26.01-33.43,50.35-50.63,7.69,21.12,29.65,99.86,26.01,167.83-.42,8.53-1.12,16.78-1.54,24.48-3.92,59.16-6.01,95.52,24.9,113.01l-.42,22.8c-31.05-27.55-57.62-59.72-78.88-95.52M346.01,659.65l.84-44.2c10.07,2.94,24.62,10.91,28.53,26.71-6.71,10.35-17.9,14.27-29.37,17.48M337.9,596.15c-14.97,2.66-27.41,11.19-36.78,18.32-3.92-15.1-7.55-26.71-10.07-33.15,15.8-9.79,31.75-15.8,47.55-18.04l-.7,32.87h0ZM409.37,328.6c.28,7.55.7,18.88,1.12,31.61l.56,15.66c-11.19,6.71-20.7,12.31-28.81,17.06-14.97,8.95-24.62,14.69-31.61,19.02.42-22.8.84-39.3.98-46.71l.42-.28c11.19-7.83,33.15-23.5,57.34-36.36M420.28,370.28l-.42-10.63c-.56-15.38-.98-28.53-1.26-35.94,4.06-1.96,7.97-3.92,11.75-5.45,44.2-23.22,59.58-12.31,68.53,1.96.98,7.27,2.38,19.44,4.06,35.66-18.88-13.43-43.92-8.67-82.66,14.41M508.95,418.53c-11.89-5.31-32.03-1.82-59.58,10.35-5.59,2.52-15.24,7.27-26.01,13.01-.84-13.99-1.96-45.31-2.52-61.12l4.34-2.52c46.57-27.83,65.59-23.92,79.44-8.67,1.82,18.32,3.78,36.92,4.9,49.09-.14,0-.28,0-.56-.14M387.27,400.77c6.99-4.06,15.1-8.95,24.48-14.55,1.12,33.71,1.96,52.59,2.66,60.28-4.62,2.52-9.51,5.17-14.27,7.69h0c-23.92,13.15-40.84,23.22-50.35,30.35l1.12-61.68c6.71-4.62,17.2-10.91,36.64-22.38M430.21,479.93c-1.12.42-11.05,4.06-13.57,11.75v.42c-8.25-7.55-8.95-22.52-9.37-31.19,18.32-9.93,37.48-19.72,46.01-23.64,33.01-14.69,46.85-12.87,52.17-10.35,2.52,1.12,4.2,2.94,5.31,5.31-1.82,12.73-7.97,20.98-80.56,47.69M474.83,495.45c-3.92-1.96-9.65-2.8-17.62-2.38-10.91.56-22.52,3.22-24.9,3.78-2.38.14-4.62,0-6.71-.42-.42-.98-.28-1.54,0-1.82.84-2.52,5.17-5.03,7.97-6.01,15.38-5.59,27.83-10.49,38.18-14.97,1.82,6.01,3.92,14.27,3.08,21.82M449.79,512.38c3.22-3.22,5.17-4.62,6.57-5.59,1.96-1.4,3.22-2.52,4.34-4.62,7.55,0,10.21,1.26,10.49,1.82,0,0,0,.84-.56,2.24-2.66,3.5-7.13,6.85-11.33,10.07-4.06,3.22-8.95,6.85-12.17,11.05-1.68-5.73-1.4-11.19,2.66-14.97M309.93,403.57c11.05,8.95,32.87,39.44,30.77,68.53-7.55-6.85-19.02-10.35-28.95-11.47-15.52-.84-25.73,4.62-33.29,11.33-1.96-33.43,23.22-60.42,31.47-68.39M292.17,508.6s-.28-.42-.42-.56c-2.8-3.36-5.31-7.69-7.69-13.01-1.68-3.78-3.08-7.55-3.92-11.61,6.99-7.69,15.8-14.13,31.05-13.57,11.19,1.26,24.34,6.29,27.41,14.69-5.31,18.04-17.34,31.75-28.95,32.59-6.57.56-12.31-2.38-17.48-8.53M303.92,623.85l.84-.56c8.67-6.57,20.28-15.24,33.43-18.18l-1.12,60-.84,41.68h0l-3.22,173.57c-21.54-16.08-19.44-49.23-15.94-101.4.42-7.69,1.12-15.94,1.54-24.62,2.38-44.06-6.15-94.55-14.69-130.49M345.59,701.33l.56-32.45c10.77-2.8,22.24-6.15,31.05-14.55,1.26,22.52-2.38,40-31.61,46.99M598.74,212.94c169.65,0,315.24,106.01,373.71,255.24-20.42-12.45-46.71-18.18-63.22-18.04.42-2.38.7-4.48.98-6.43h0c.42-3.64.98-7.27,1.26-10.35,2.1-10.49,2.24-20,.42-28.25v-2.24c-1.12-18.04-8.95-34.55-21.82-46.43-13.01-12.03-29.79-18.18-46.99-16.92-17.34,1.12-33.15,9.09-44.62,22.66-11.33,13.43-16.92,30.91-15.94,48.81,1.12,16.92,8.11,32.17,18.88,43.64-18.32,3.78-32.03,10.63-42.24,18.88,2.24-25.87-6.43-51.05-15.94-66.71-.14-.42-.42-.7-.56-.98-3.22-5.17-6.71-9.65-10.21-13.15-6.01-6.01-11.05-10.77-17.06-13.15-2.8-14.27-7.55-23.36-12.87-29.51,2.66-5.59,8.53-18.18,10.49-23.64.56-1.68.28-3.36-.98-4.62s-2.94-1.82-4.62-1.4c-10.49,2.52-22.52-6.71-24.9-9.65-1.26-1.68-3.64-2.1-5.45-1.12-12.31,5.73-17.76,6.43-30.35,4.06-1.68-.28-3.22.28-4.2,1.4-1.12,1.12-1.4,2.8-1.12,4.48l8.67,29.65c-5.45,8.67-9.09,23.5-.7,41.12-14.13-2.94-27.13-11.19-37.2-17.62-1.12-.7-2.24-1.4-3.22-2.1l10.49-34.55c.42-1.68,0-3.5-1.26-4.62-1.26-1.12-3.22-1.54-4.76-.98-16.78,6.43-23.92-1.96-24.06-2.1-1.4-1.68-3.78-2.1-5.59-1.12-15.1,7.55-22.8,2.52-26.01.28l-.7-.42c-1.68-1.12-3.78-1.12-5.31.14-1.54,1.12-2.24,3.22-1.68,5.03.42,1.4,1.4,8.25,2.38,13.71,1.26,8.53,2.66,18.18,4.06,22.94.56,1.96,2.52,3.5,4.62,3.36,18.88-.56,33.43,2.66,38.88,4.2,9.09,28.81,33.15,53.15,54.41,54.97,15.1,1.26,18.74,6.43,22.8,13.71-4.76,2.8-10.35,5.17-16.5,7.41-16.08,5.59-28.95,11.75-40.7,17.9,12.03-21.4,7.55-38.88,6.01-42.94-.56-1.68-1.96-2.8-3.64-3.22-1.68-.28-3.36.42-4.48,1.82-11.33,14.97-32.17,19.44-50.49,23.36l-1.82.42c-2.52.56-4.06,3.08-3.5,5.45.56,2.52,3.08,4.06,5.45,3.5l1.82-.42c16.92-3.64,35.8-7.69,49.37-19.72.42,9.37-1.82,25.03-18.18,42.1-9.23,5.03-17.34,9.09-25.87,12.59-8.95,3.64-16.78,6.01-23.22,6.99-7.69-11.75-6.29-26.71-4.62-34.83,3.22-15.38,10.49-26.71,14.69-29.09,1.54-.84,2.52-2.52,2.38-4.2,0-1.82-1.12-3.22-2.52-3.92-6.71-3.22-10.91-7.97-12.59-13.99-2.38-7.69,0-15.8,1.96-19.16,3.92-6.57,13.29-7.83,20.98-6.85,12.45,1.68,22.1,20.84,24.48,30.07-7.13,5.31-15.24,6.43-25.03,3.64-2.52-.7-5.03.7-5.73,3.22s.7,5.03,3.22,5.73c13.99,3.92,25.59,1.54,35.66-7.13,1.12-1.12,1.82-2.52,1.54-4.06-1.12-7.69-11.89-37.48-32.87-40.42-13.29-1.82-24.76,2.52-30.07,11.05-3.64,6.01-6.01,16.64-2.94,26.57,1.96,6.57,6.01,12.03,11.75,16.22-5.87,6.85-11.19,18.6-13.71,30.63-.84,4.06-1.26,8.11-1.4,11.75-10.49,7.55-13.57,18.88-11.05,24.62.42,1.12.7,2.52,1.12,3.92,2.8,10.49,6.99,26.15,26.85,31.19.42,20.84-7.55,38.18-23.92,51.33-4.9.42-9.93,1.26-15.1,2.38-6.01-6.01-12.87-11.19-20.7-15.94-25.03-14.83-55.66-20.28-76.78-13.85-12.03-29.65-34.55-48.11-67.27-55.24v-7.97c3.22-3.22,16.22-12.45,48.95-30.63.84,13.01,3.92,33.29,22.38,38.88.42.14.84.28,1.12.42,2.66.7,5.59,1.12,8.67,1.12h2.66c.28,0,.56,0,.84-.14,0,0,5.03-1.12,11.61-2.24-.7.7-1.54,1.4-2.38,2.24-9.37,9.37-7.83,25.59,3.78,40.28.98,1.12,2.24,1.82,3.64,1.82.98,0,1.82-.42,2.8-.98,1.96-1.54,2.52-4.34.98-6.43-3.5-4.9-.56-8.25,10.63-16.78,4.62-3.5,9.51-7.27,12.87-11.47.28-.28.42-.42.42-.56h0s.14-.28.28-.28h0c.28-.42.42-.7.7-1.12,8.53-13.01,3.92-30.21.7-40.14,33.43-15.1,38.18-23.78,40-37.9h0v-.56h0v-.42h0s-3.08-32.73-6.29-64.06h0c-1.68-16.22-3.92-37.9-5.45-48.95,0-.56-.28-1.12-.56-1.82-20.28-33.15-56.08-19.44-80.84-6.29-4.62,1.96-9.37,4.2-14.69,6.85-27.41,13.99-52.73,31.75-65.03,40.42l-2.24,1.54c-1.12.84-1.82,2.24-1.96,3.64-.14,6.29-.56,27.41-1.12,57.9l-.28,12.03c-8.53-18.88-21.54-33.99-29.79-38.6-1.68-.98-3.78-.7-5.31.42-.42.42-46.15,39.58-36.08,88.95v.28h0c1.12,5.31,2.8,10.49,5.03,15.52,1.82,3.92,3.64,7.13,5.45,9.93-16.22,6.01-57.62,25.03-71.47,65.17-12.17,35.38-24.48,142.52,41.26,180.42.56,17.76-.84,35.24-4.06,52.17-31.33-57.06-49.09-122.52-49.09-192.17,0-221.26,180-401.26,401.26-401.26M921.68,562.17c-4.06-8.67-8.39-18.74-13.15-30.35,7.55-4.76,16.36-10.77,23.08-15.24h0l2.52-1.68c3.22,6.01,7.97,14.69,13.57,21.82-5.17,7.83-17.2,20.14-26.01,25.45M873.15,590.42c.7-1.82,1.26-3.92,1.82-5.87,1.12-3.22,1.96-6.71,2.8-10.21,4.48-15.38,4.06-32.45,4.06-33.15,0-1.82-1.26-3.64-3.08-4.2l-34.97-12.45c-1.12-.42-2.52-.42-3.64.28-1.12.56-1.96,1.54-2.38,2.66-.14.42-.42.98-.42,1.4-1.82-8.95-3.36-16.08-4.48-21.12,18.88,4.62,43.92,12.73,44.06,12.87,1.54.42,3.22.14,4.62-.98l9.93-8.95h0l27.27-24.2,4.76,23.92c-7.27,4.9-16.5,11.05-23.5,15.38-1.82,1.12-2.66,3.5-1.82,5.59,6.29,15.52,11.75,28.25,16.92,38.88,1.4,2.94,2.66,5.59,4.06,8.11h-.42c-.14,0-.28.14-.42.28-.14,0-.42.14-.42.28h0l-24.34,17.76-20.42-6.29h0ZM804.9,710.7c-.42-24.76-.84-48.95-1.12-69.65.14,0,.42.28.42.28,3.92,1.82,8.25,2.8,12.45,2.8,7.41,0,15.24-2.52,23.64-7.69,8.81-5.31,20.42-16.08,29.37-37.48l8.25,2.66c-.42,1.54-.84,3.22-1.4,5.03-6.43,24.76-21.4,81.68-71.61,104.06M666.57,793.92c1.82,8.25,4.34,15.8,7.41,22.52-24.76-36.22-11.05-74.41-2.8-86.99,3.22,3.22,5.59,5.59,6.85,6.85-10.07,11.89-17.48,29.93-11.47,57.62M699.02,619.37c.42,2.52.7,9.23-3.36,14.27-2.66,3.22-6.85,5.31-12.59,6.15-2.8-9.79-3.92-21.54,3.78-27.27,7.27-5.59,13.43-7.97,18.18-7.13,3.22.56,6.15,2.94,8.81,6.99,0,0,.14.28.28.42-2.1.42-3.92.42-5.45.56-2.38.14-4.48.28-6.57,1.12-2.1.98-3.36,2.94-3.08,4.9M859.44,369.72c-27.69,3.78-43.78,20.42-45.17,47.27-.7,12.45,2.52,26.43,9.65,41.82,0,.28.14.42.28.56.42.7.7,1.4,1.12,2.1-4.06-1.82-7.83-4.06-11.19-6.71-.14-.14-.42-.28-.42-.42-12.87-10.07-21.12-25.59-22.38-43.22-.98-15.52,3.92-30.63,13.71-42.38,9.79-11.61,23.22-18.46,38.18-19.44,14.69-.98,29.09,4.2,40.28,14.55,5.45,5.03,9.93,11.05,13.15,17.76-14.55-11.19-33.43-12.31-37.2-11.89M869.23,508.6c-15.38-17.62-27.27-34.41-34.97-49.79l32.17-21.68,33.71,9.93c-3.92,25.45-9.37,46.29-15.38,57.48l-7.41,6.57c-1.82-.42-4.62-1.4-8.11-2.52M902.24,407.62c1.82,7.13,1.68,15.38-.42,25.17-.28,1.68-.42,3.36-.56,5.17l-34.55-10.21c-1.26-.42-2.66-.14-3.92.56l-32.73,22.1c-5.03-12.17-7.41-23.22-6.85-32.73,1.12-22.52,13.71-35.38,37.2-38.6.42,0,34.83,0,41.82,28.53M822.38,502.87c.98,5.17,3.92,19.02,8.39,40.14-4.62,6.99-10.77,11.05-19.58,13.15-2.52.56-3.92,3.08-3.36,5.59.42,2.1,2.52,3.5,4.48,3.5.42,0,.7,0,1.12-.14,4.9-1.12,9.23-2.94,13.01-5.31,4.62,7.69,16.08,22.24,38.18,27.27-8.53,24.9-20.42,36.5-29.09,41.82-10.49,6.43-19.72,7.97-27.55,4.48-12.73-5.87-22.24-25.73-27.41-57.48-7.55-46.99,9.23-80.28,51.61-101.68,5.73,9.65,12.73,19.58,21.12,29.79-8.53-2.52-17.62-4.9-25.17-6.43-1.54-.42-3.08.14-4.2,1.12-1.26,1.12-1.82,2.66-1.54,4.2M868.67,572.38c-.42,1.96-.98,3.92-1.54,5.87-20.42-4.48-30.21-18.18-33.57-24.2,2.1-2.1,3.92-4.48,5.59-7.27.28-.42.42-.7.7-1.12,1.82-3.22,3.5-6.57,5.03-10.63l27.55,9.79c0,5.45-.84,17.06-3.78,27.55M567.13,537.83h.98v.7c.7,15.38,1.68,34.69,32.17,65.31-1.12,2.1-1.96,4.2-2.8,6.29-13.29-15.1-31.61-22.94-54.69-23.22,12.59-13.57,18.88-30.07,18.88-49.23,1.82.14,3.64.28,5.45.14M605.17,595.73c-26.43-27.13-27.13-43.22-27.83-57.48v-.84c1.12,0,2.1-.28,3.22-.42,11.89-1.68,23.36-2.52,34.27-2.8,3.22,15.38,10.35,30.63,16.22,38.88-4.48,2.24-8.67,4.9-12.45,8.11-5.31,4.48-9.79,9.51-13.29,14.69M747.41,485.8c-9.65,11.75-14.13,24.9-16.22,35.66-47.83.98-61.96,28.67-66.29,43.92-9.09.28-17.48,1.54-25.17,4.06-4.76-5.87-13.99-23.92-16.78-40.7v-.42c-.84-5.31-1.12-10.77-.14-15.38,1.54-8.25,6.01-13.29,13.71-15.52,7.97-2.38,18.88-2.52,30.35-3.08,23.92-.7,51.05-1.54,66.57-20.42,7.55-9.23,11.47-21.68,11.89-37.62,4.48,14.97,6.43,32.45,2.1,49.51M694.97,344.41c-1.54-1.12-2.94-2.1-4.2-2.8-14.13-8.39-27.97-1.82-33.57,1.12l-5.17-17.76c9.23.98,15.94-.42,25.73-4.62,4.9,4.34,13.85,9.79,23.36,10.63-1.96,4.62-4.2,9.79-6.15,13.43M704.2,379.23h0c-.42,0-.98,0-1.26.14-1.68.28-3.36.56-5.31,1.12-25.17-3.22-31.33-20.42-34.13-30.49,5.17-2.52,13.99-5.31,22.52-.42,2.38,1.4,4.62,3.08,7.13,5.31l.28.28c4.62,4.62,8.95,11.75,11.75,23.92h-.98M660.14,392.38c-9.51-15.38-7.27-27.69-3.92-34.83,3.22,9.51,10.21,22.1,26.15,28.39-2.1.98-4.34,1.82-6.71,2.94-4.9,2.24-9.93,3.36-15.52,3.5M600,367.9c-6.43-1.54-18.88-4.06-35.1-4.06h-.7c-.98-4.9-2.1-12.31-3.08-18.46-.42-1.96-.56-3.78-.84-5.31,5.59,1.82,13.71,2.38,24.34-2.38,4.62,3.5,12.45,6.57,23.22,4.62l-7.83,25.59ZM654.55,423.15c-15.1-1.26-32.45-17.76-42.24-38.32,12.17,7.55,27.69,16.08,44.76,16.78h2.1c7.13,0,13.99-1.4,20.42-4.34,8.53-3.92,15.38-6.85,20.84-8.25,4.2,23.08-.98,39.72-16.22,51.75-4.48-7.83-10.35-16.08-29.65-17.62M544.62,510.98c1.12,0,2.38,0,3.5-.14h.56c.42,0,1.12,0,1.54-.28,7.69-.98,16.92-3.5,27.41-7.83,10.21-4.2,19.44-9.09,27.41-13.43l5.31-2.94c15.38-8.39,31.05-17.06,52.73-24.62,37.62-13.01,53.01-37.2,46.71-73.57,4.2,1.12,8.39,4.34,15.66,11.61,2.94,3.08,5.87,6.85,8.67,11.19,4.2,26.57,1.68,45.17-7.83,56.78-12.87,15.66-37.76,16.36-59.72,17.06-12.03.42-23.36.7-32.45,3.36-11.05,3.22-18.18,11.05-20.28,22.66-.84,4.34-.84,8.95-.42,13.85-10.91.42-22.38,1.26-34.13,2.94-2.52.42-4.76.56-6.99.7h0c-5.59.42-10.35.14-14.41-.56h-.28c-13.01-2.38-18.04-9.79-20.84-17.62,2.24.56,4.76.84,7.69.84M536.22,488.32c.84,4.62,2.1,9.09,4.06,13.15-3.08-.56-5.87-1.82-7.41-4.2-.14-1.26.28-5.17,3.36-8.95M716.5,904.97c-30.77-14.83-43.92-36.78-56.5-58.18-10.91-18.6-22.24-37.62-44.62-51.05,8.25-3.22,17.34-8.53,27.55-16.36,1.54-1.12,2.1-3.08,1.68-4.9-.42-1.82-1.96-3.22-3.92-3.36-35.52-4.62-50.07-21.54-51.75-25.17-.42-2.24-2.38-3.92-4.76-3.64-2.52.14-4.48,2.38-4.34,4.9.42,4.62,13.99,23.64,48.67,31.05-32.73,21.68-51.47,10.91-63.5,2.66l-.98-54.69c0-1.82-1.12-3.22-2.52-4.06-1.54-.84-3.36-.7-4.62.42l-3.92,2.66c-5.31-8.25-9.23-18.74-4.2-27.27,5.45-9.37,19.58-13.15,27.55-12.45,10.35,1.12,12.31,19.72,13.71,33.43.28,1.82.42,3.64.56,5.31-4.06.98-11.61,1.4-18.46-5.31-1.82-1.82-4.62-1.82-6.57,0-1.82,1.82-1.82,4.62,0,6.57,11.75,11.61,26.01,9.09,32.03,6.01,1.82-.98,2.8-2.94,2.52-4.9-.42-2.52-.7-5.45-1.12-8.67-1.82-16.78-4.06-39.72-21.82-41.68-10.49-1.12-28.67,3.36-36.5,16.78-4.2,7.27-6.71,19.58,4.62,37.2l-8.39,5.87c-1.26.98-2.1,2.38-1.96,3.92.28,5.31.42,17.76.42,33.29-.28,0-.42-.14-.56-.14-35.52-4.62-50.07-21.54-51.75-25.17-.42-2.24-2.66-3.78-4.76-3.64-2.52.14-4.48,2.38-4.34,4.9.28,4.62,13.99,23.64,48.67,31.05-33.01,21.68-51.75,10.77-63.5,2.66l-1.26-54.41c0-1.68-.98-3.22-2.52-3.92-1.54-.84-3.36-.7-4.62.42l-3.92,2.66c-5.17-8.25-9.23-18.74-4.2-27.27,5.45-9.37,19.58-13.15,27.55-12.45,10.35,1.12,12.31,19.72,13.71,33.43.28,1.82.42,3.64.56,5.31-4.06.98-11.61,1.4-18.46-5.31-1.82-1.82-4.62-1.82-6.57,0-1.82,1.82-1.82,4.62,0,6.57,11.75,11.61,26.15,9.09,32.03,6.01,1.82-.98,2.8-2.8,2.52-4.76-.42-2.52-.7-5.45-1.12-8.67-1.82-16.78-4.06-39.72-21.82-41.68-10.49-1.12-28.81,3.36-36.5,16.78-4.2,7.27-6.71,19.58,4.62,37.2l-8.39,5.87c-1.26.98-2.1,2.52-1.96,3.92.56,13.57,0,63.22-.28,93.71-25.45-36.22-25.17-90.63-20.84-116.36,1.12-6.71,3.22-14.55,5.87-23.64,7.55-26.99,17.9-64.06,10.21-109.23-1.12-6.57-2.66-12.73-4.62-18.6,18.46-5.31,46.43-.28,68.95,13.15,13.99,8.25,37.76,27.13,41.12,59.72.28,2.38,2.24,4.2,4.62,4.2h.42c2.52-.28,4.48-2.52,4.06-5.03-1.68-15.66-7.55-30.21-17.48-42.66,33.43-5.45,58.04,2.1,73.15,22.66-2.52,8.95-3.08,16.22-3.22,18.88-.14,2.52,1.82,4.62,4.48,4.76h.28c2.52,0,4.48-1.82,4.62-4.48.14-2.52.7-9.79,3.22-18.6h0c1.4-4.9,3.5-10.35,6.43-15.52,0-.28.28-.42.28-.56,3.36-6.01,8.11-11.89,14.13-16.92,14.69-12.03,35.1-16.08,60.7-12.31,2.52.42,4.9-1.4,5.31-3.92.42-2.52-1.26-4.9-3.92-5.31-4.06-.56-8.11-1.12-11.89-1.26,4.62-14.55,17.76-33.71,55.38-34.97-.56,6.15-.42,10.63-.42,12.45.14,2.52,2.24,4.34,4.62,4.34h.28c2.52-.14,4.48-2.38,4.34-4.9-.42-6.99-.56-31.61,16.36-51.75.28-.28.42-.42.56-.56,10.49-12.17,27.41-22.66,54.13-26.71,3.36,2.52,6.99,4.62,11.05,6.43-41.12,23.5-57.34,58.74-49.37,107.41,1.82,11.75,4.48,22.1,7.55,30.91l-12.45,3.78c-13.99,4.2-29.65,8.95-39.16,11.75-.56-1.68-1.12-3.36-1.68-5.17-.42-1.26-.84-2.52-1.12-3.78h0v-.14q0-.14,0,0h0c-.98-2.66-1.82-4.76-3.08-6.71-3.92-6.29-8.95-10.07-14.97-11.05-7.55-1.26-15.66,1.54-25.31,8.81-10.35,7.69-12.31,21.96-5.87,41.12h0c1.82,5.31,3.92,10.07,5.73,13.71h0c-1.4-1.82-3.92-2.52-6.01-1.26,0,0-7.13,4.06-17.34,10.49-4.62,3.08-9.23,6.01-13.71,8.95l6.15-25.59c.56-2.52-.98-5.03-3.36-5.59-2.52-.56-5.03.98-5.59,3.36l-9.09,37.34v2.38c0,.14,0,.28.14.42,0,.14,0,.28.14.42,0,.14.14.42.28.42v.14s0,.14.14.28c0,.14.28.28.42.42h0s17.76,17.62,31.05,31.05c-10.63,14.83-27.27,59.58,3.36,101.4.98,1.12,2.38,1.82,3.78,1.82.98,0,1.82-.28,2.66-.98,1.12-.84,1.82-2.1,1.82-3.36,13.43,27.55,33.57,43.08,40.28,47.69v20.7c0,2.52,2.1,4.62,4.62,4.62h0c2.52,0,4.62-2.1,4.62-4.62v-175.94c20.7,4.48,47.55,10.21,49.09,10.49,2.52.56,5.03-.84,5.59-3.22.56-2.52-.84-5.03-3.22-5.59-1.82-.42-46.15-9.93-55.1-11.75-1.4-.28-2.8,0-3.92.98-1.12.84-1.82,2.24-1.82,3.64v149.65c-11.33-9.37-33.15-31.19-40.98-66.01-9.51-42.52,17.48-58.18,30.35-65.73,1.26-.7,2.38-1.4,3.22-1.96,2.1-1.4,2.8-4.2,1.4-6.43-1.4-2.1-4.2-2.8-6.43-1.4-.84.56-1.82,1.12-3.08,1.82-4.34,2.52-10.63,6.15-16.78,11.61-1.4-1.4-4.34-4.34-10.49-10.49-9.93-9.93-23.5-23.5-30.21-30.07,5.87-3.92,12.17-8.11,18.74-12.31,5.73-3.64,10.35-6.43,13.43-8.25,9.65,13.15,16.36,23.92,19.44,28.95-2.8,2.1-5.31,4.48-7.55,6.43-1.82,1.82-2.1,4.62-.42,6.57.98,1.12,2.24,1.54,3.36,1.54s2.24-.42,3.08-1.12c9.65-8.67,21.54-19.3,48.25-10.91,2.52.7,5.03-.56,5.73-3.08.84-2.52-.56-5.03-3.08-5.73-19.02-6.01-32.17-3.36-41.82,1.54-2.8-4.62-8.67-13.85-16.78-25.31.56.28,1.12.42,1.82.42h.42c9.37-.84,28.25-7.27,32.45-26.57.56-2.52-1.12-4.9-3.5-5.45-2.52-.56-4.9,1.12-5.45,3.5-3.08,13.71-15.8,17.76-21.54,18.88-1.12-2.1-2.8-5.31-4.48-9.37,7.27-1.4,12.87-4.48,16.78-9.23,4.62-5.59,5.59-12.17,5.59-16.78h.42c2.24-.14,4.9-.42,8.25-1.12.84,2.8,1.82,6.01,3.36,8.95v.42c3.22,6.85,8.39,11.47,15.52,14.55,15.1,6.43,26.71,17.62,34.27,33.43.84,1.68,2.52,2.52,4.2,2.52.7,0,1.4-.14,1.96-.42,2.38-1.12,3.22-3.92,2.1-6.15-8.67-17.76-21.82-30.49-38.88-37.9-3.22-1.4-5.73-3.22-7.83-5.31,9.65-2.8,24.2-7.27,37.2-11.05l13.15-3.92c3.36,7.55,7.41,13.57,11.89,18.04.42,23.92.84,53.43,1.26,83.22.42,24.2.84,48.67,1.26,70.49.7,37.2,1.26,66.71,1.4,75.24-19.72,14.69-42.24,31.05-75.52,40.14-1.82.42-3.92.98-6.01,1.26M632.03,909.16c-5.31-7.27-8.53-15.8-12.03-24.9-8.25-21.26-17.34-45.31-54.97-48.81l-.84-42.52c6.99,4.2,15.94,8.25,27.55,8.25,3.22,0,6.43-.42,10.07-.98,25.87,12.03,37.34,31.33,49.37,51.89,11.75,19.72,23.78,40.14,48.95,55.66-17.9,1.68-42.1,2.1-68.11,1.4M605.87,907.76c-30.21-14.69-42.52-36.64-54.55-57.76-2.66-4.62-5.31-9.37-8.11-13.99.42-35.94.42-77.9,0-92.73l10.77-7.55.84,48.53.98,55.24v8.81c.28,2.52,2.24,4.62,4.76,4.62h0c2.52,0,4.62-2.1,4.62-4.62v-3.5c31.05,3.22,38.04,21.54,46.15,42.66,2.66,7.13,5.45,14.41,9.37,21.12-4.9-.28-9.79-.56-14.83-.84M534.27,822.73c-6.43-8.39-14.69-16.78-26.15-23.5,7.97-3.22,16.78-8.11,26.43-15.38-.14,12.17-.14,25.73-.28,38.88M516.92,894.2c-.98-2.52-1.96-4.9-2.94-7.55-8.11-21.26-17.34-45.31-54.97-48.67l-.7-42.52c6.99,4.2,16.08,8.25,27.55,8.25,2.94,0,6.01-.28,9.23-.84,20.42,9.51,31.05,23.22,39.58,36.92,0,0,0,.28.28.42,2.94,4.76,5.73,9.65,8.39,14.55,10.21,18.18,20.7,36.64,41.68,51.61-27.97-2.66-51.61-6.85-68.11-11.89M437.34,745.94l10.77-7.55,1.82,103.64v8.95c.14,2.52,2.24,4.62,4.76,4.62h0c2.52,0,4.62-2.1,4.62-4.62v-3.5c30.49,3.22,37.76,21.12,45.73,41.82-15.38-7.27-32.59-16.92-51.47-27.83-6.01-3.5-11.75-7.97-16.78-13.15.42-32.03.98-84.34.56-102.38M987.27,710.98c-62.52-41.4-63.36-95.24-62.94-120.28,13.71,23.08,24.48,28.67,38.88,28.67,1.4,0,2.8,0,4.2-.14,2.52-.14,4.48-2.38,4.34-4.9s-2.38-4.62-4.9-4.34c-11.89.7-22.52,1.4-42.38-38.18,9.65-5.73,21.68-17.62,28.25-26.85,3.22,2.94,6.43,4.9,9.65,5.31h.42c2.38,0,4.34-1.82,4.62-4.2.28-2.52-1.68-4.76-4.2-5.03-1.82-.28-4.62-2.52-7.55-6.15-.14-.14-.28-.42-.42-.42-5.31-6.57-11.75-16.92-16.5-26.85-.56-1.12-1.68-2.1-2.94-2.52-1.26-.42-2.66-.14-3.78.56l-1.12.84-5.59-28.11c-.42-1.68-1.54-2.94-3.08-3.5-1.54-.56-3.22-.28-4.62.98l-18.6,16.5c3.22-10.07,5.45-21.12,7.27-31.05,18.18-.84,51.19,7.41,70.21,23.92.14,0,.28.28.42.28,14.13,40.98,21.82,84.9,21.82,130.49-.14,32.45-4.06,64.48-11.47,94.97M1007.83,615.73c0-226.71-183.78-410.49-410.49-410.49s-410.49,183.78-410.49,410.49c0,183.5,120.42,338.88,286.57,391.33.56,22.24,2.52,46.29,7.55,56.36.28.42.42.7.84,1.12,23.22,24.48,103.22,2.1,163.36-15.24,1.12,8.39,4.62,25.59,16.5,31.47,2.94,1.4,6.01,1.96,9.37,1.96,10.49,0,21.26-6.01,22.8-6.85,1.82-1.12,2.52-3.08,2.1-5.03-.42-1.96-2.24-3.36-4.2-3.36-.28,0-5.45-.42-7.27-6.99,6.57-.56,13.71-.56,19.44-.14h.42c6.85-.14,12.87-4.06,15.52-10.07.42-1.12.84-2.24,1.12-3.36v-.42c.42-2.1.42-4.2-.28-6.15l-1.82-32.45c167.41-51.89,288.95-207.83,288.95-392.17"/>
    <path class="cls-2" d="M525.87,1022.73c-2.52.28-5.31.28-7.83.28,1.26-3.22,2.52-6.71,3.92-9.93,1.26,3.22,2.66,6.57,3.92,9.65M525.45,1004.13s-.56-.7-1.12-.56c-1.68,0-3.22.14-4.62.14-.42,0-.84.28-1.12.7-4.62,11.19-9.09,22.1-13.57,32.73-.14.42,0,.7,0,1.12.28.42.56.56.98.56,1.68.14,3.22.28,4.76.42.42,0,.84-.28,1.12-.7,1.12-3.08,2.52-6.01,3.64-9.09,4.34,0,8.53,0,12.87-.42,1.26,3.22,2.52,6.15,3.78,9.23.28.42.56.7,1.12.56h.28c1.54-.42,3.08-1.12,4.62-1.54.42-.14.56-.42.84-.7.14-.42.14-.7,0-.98-4.76-10.49-9.09-20.84-13.57-31.47"/>
    <path class="cls-2" d="M577.34,1010.7c0,7.55-4.06,12.73-12.31,14.97-1.4.42-2.8.7-4.2,1.12v-22.8c1.4-.42,2.94-.7,4.48-1.12,7.83-2.24,12.17.56,12.03,7.83M565.17,996.43c-3.36.98-6.85,1.82-10.07,2.52-.56.14-1.12.84-1.12,1.4v33.29c0,.56.42,1.12,1.12.84,3.22-.7,6.57-1.68,9.93-2.52,12.17-3.22,19.58-12.59,19.58-23.64.14-10.77-7.41-15.1-19.44-11.89"/>
    <path class="cls-2" d="M620.7,985.66c4.06-1.12,6.85,1.54,6.85,6.85-2.1,2.1-4.48,3.5-6.85,4.2-3.92,1.12-5.87,0-5.87-3.78.14-3.78,2.24-6.29,5.87-7.27M620.84,979.37c-7.55,2.24-12.87,8.95-12.87,15.94s4.48,9.93,11.75,7.83c2.24-.56,4.34-1.82,6.43-3.08-2.1,4.62-6.43,8.53-12.73,11.75-.56.42-.98.98-.98,1.54.28,1.12.42,2.52.7,3.64,0,.28.28.42.42.56h.84c12.59-6.43,19.72-15.94,19.72-26.71,0-9.23-5.17-13.71-13.43-11.19"/>
    <path class="cls-2" d="M650.63,1002.31c-4.06.7-6.71-1.82-6.85-7.13,2.1-1.96,4.48-3.22,6.85-3.64,4.06-.7,6.01.7,6.01,4.34,0,3.36-2.38,5.87-6.01,6.43M651.75,985.38c-2.38.42-4.62,1.26-6.71,2.66,1.82-4.62,6.01-8.25,12.59-10.77.56-.28.98-.84.84-1.4-.28-1.26-.42-2.52-.56-3.78,0-.42-.28-.56-.42-.7-.28-.14-.56-.14-.98,0-12.59,4.9-19.3,14.13-19.3,24.9,0,9.23,5.17,13.57,13.29,12.17,7.55-1.26,12.87-6.85,12.87-13.57s-4.48-10.77-11.61-9.51"/>
    <path class="cls-2" d="M689.23,1000.63s-.56-1.12-1.12-1.12c-4.34-.42-8.67-.56-12.87-.42,2.52-2.52,5.17-5.03,7.69-7.41,4.2-3.92,6.43-6.57,6.43-11.05,0-6.29-4.62-11.05-11.75-11.05-5.03,0-8.81,2.38-10.91,4.34-.42.28-.42.7-.42,1.12.28,1.4.42,2.8.7,4.2,0,.42.42.7.7.84.42,0,.84,0,1.12-.28,2.8-2.52,5.59-3.92,8.53-3.92,4.62,0,5.17,2.66,5.17,4.48,0,2.1-1.12,3.92-4.06,6.85-4.2,4.2-8.39,8.53-12.59,13.15-.28.28-.42.56-.42.84v3.36c0,.56.42,1.12,1.12,1.12,7.41-.56,14.83-.56,22.24.14.42,0,.56,0,.84-.42.28-.28.42-.56.28-.84-.28-1.12-.42-2.38-.7-3.92"/>
    <path class="cls-2" d="M586.01,1019.37c-1.82.56-3.22,2.52-3.22,4.34s1.54,2.94,3.22,2.38c1.82-.56,3.22-2.52,3.22-4.34s-1.4-2.8-3.22-2.38"/>
    <path class="cls-2" d="M543.78,1030.42c-1.82.42-3.22,1.96-3.22,3.92,0,1.82,1.54,3.08,3.22,2.8,1.82-.42,3.22-2.1,3.22-3.92s-1.4-3.22-3.22-2.8"/>
    <path class="cls-3" d="M277.2,950.56l-20.56,9.23,9.23-20.56,11.33,11.33ZM306.01,938.67s-.56-.42-.98-.42c-.28,0-.42,0-.56.14l-17.34,7.83-16.78-16.92,8.25-18.04c.28-.56,0-1.26-.42-1.68l-7.13-4.62s-.42-.28-.7-.28h-.42c-.42.14-.7.42-.84.7l-26.57,60.28s0,1.12.28,1.54l6.01,6.01s.56.42.98.42h.56l61.54-26.85s.7-.56.84-.98c0-.42,0-.98-.42-1.12l-6.29-6.01h0Z"/>
    <path class="cls-3" d="M264.62,895.31s0-.7-.28-1.12l-19.58-25.31s-.56-.42-.98-.42h0c-.42,0-.7.14-.98.42l-5.31,5.73s-.42,1.12,0,1.82l12.87,16.78-42.1,32.45c-.56.42-.7,1.26-.28,1.82l5.17,6.71s.56.42.98.42h.14c.42,0,.56,0,.84-.28l49.37-38.04s.42-.56.42-.98"/>
    <path class="cls-3" d="M237.9,861.75v-1.12l-3.92-6.85s-.7-.7-1.12-.7c-.28,0-.42,0-.56.14l-39.72,18.46,30.07-36.92s.42-1.12.14-1.54l-3.22-5.59s-.7-.7-1.12-.7h-.14l-47.27,6.43,36.5-24.34s.84-1.12.42-1.82l-3.92-7.13s-.42-.56-.84-.7h-.42c-.28,0-.42,0-.7.28l-51.89,34.69c-.56.42-.84,1.12-.42,1.82l5.03,8.95s.7.7,1.12.7h.28l50.49-7.55-32.73,39.16s-.42,1.12-.14,1.54l5.17,9.09s.7.7,1.12.7c.28,0,.42,0,.56-.14l56.78-26.15s.56-.42.7-.84"/>
    <path class="cls-3" d="M143.36,780.49l17.2-14.69,5.31,15.1-22.52-.42ZM198.6,792.1s.84-.28,1.12-.56c.28-.42.42-.84.14-1.26l-2.94-8.11s-.7-.98-1.26-.98l-19.02-.42-8.11-22.52,14.97-12.73s.56-1.12.28-1.82l-4.48-7.13s-.56-.56-.98-.56h-.28c-.42,0-.56,0-.98.42l-49.65,43.22s-.56.98-.42,1.54l2.8,7.97s.7.84,1.12.98l67.13,1.82h0"/>
    <path class="cls-3" d="M140.28,639.93c15.94,0,25.87-9.65,26.01-25.31,0-7.83-2.38-14.27-6.85-18.88-4.62-4.62-11.33-6.99-19.44-6.99l-38.18-.28c-.7,0-1.4.56-1.4,1.26v8.53c0,.7.42,1.4,1.26,1.4l37.9.42c7.55,0,16.36,2.66,16.22,14.69,0,11.75-8.95,14.13-16.5,14.13h-.28l-37.62-.28c-.7,0-1.4.56-1.4,1.26v8.53s0,.7.42.98c.28.28.56.42.98.42l38.74.42h.42l-.28-.28Z"/>
    <path class="cls-3" d="M103.64,565.24l61.54,9.79h.28c.28,0,.56,0,.84-.28.42-.28.42-.56.56-.98l1.26-7.69c.14-.7-.42-1.4-1.12-1.54l-43.64-6.85,49.37-24.34s.7-.56.7-.98l1.12-6.29c.14-.7-.42-1.4-1.12-1.54l-61.54-9.79h-.28c-.28,0-.56,0-.84.28-.28.28-.42.56-.56.98l-1.26,7.69c0,.7.42,1.4,1.12,1.54l41.82,6.71-47.55,23.36s-.7.56-.7.98l-1.12,7.55s0,.7.28,1.12c.14,0,.56.28.84.28"/>
    <path class="cls-3" d="M117.34,492.8l60,16.64h.42c.28,0,.42,0,.7-.28.42-.14.56-.42.56-.84l2.24-8.25c.28-.7-.28-1.4-.98-1.68l-60-16.64h-.42c-.56,0-1.12.42-1.26,1.12l-2.24,8.25s0,.7.14,1.12c.14.42.56.56.84.56"/>
    <path class="cls-3" d="M126.01,465.94h0l66.01-.42s1.12-.42,1.26-.98l2.66-7.13s0-1.12-.42-1.54l-49.65-45.17s-.56-.42-.98-.42h-.42c-.42,0-.84.42-.98.84l-3.22,8.25s0,1.12.42,1.54l38.18,33.85-51.75-.42h0c-.7,0-1.26.42-1.26,1.12l-1.4,8.53s0,.84.42,1.12c.28.28.56.42,1.12.42"/>
    <path class="cls-3" d="M153.85,394.76l54.69,29.65s.42.14.56.14c.42,0,.98-.28,1.12-.7l16.36-30.35c.42-.7,0-1.54-.56-1.82l-6.85-3.78s-.42-.14-.7-.14h-.42c-.42,0-.56.42-.84.7l-11.75,21.68-16.08-8.67,9.23-17.06s.28-.84,0-1.12c-.14-.42-.42-.7-.84-.84l-7.41-2.52h-.42c-.42,0-.98.28-1.12.7l-8.67,15.94-13.43-7.27,11.19-20.98s.28-.7,0-1.12c0-.42-.42-.56-.7-.84l-6.85-3.78s-.42-.14-.56-.14c-.42,0-.98.28-1.12.7l-16.08,29.51c-.42.7,0,1.54.56,1.82"/>
    <path class="cls-3" d="M207.27,331.26c1.82,0,3.64.7,5.31,1.96,2.52,1.82,3.78,3.92,3.92,6.57,0,2.52-.98,5.59-3.22,8.81l-3.36,4.76-15.38-10.77,3.92-5.45c2.8-3.92,5.73-5.73,8.81-5.87M231.89,382.59s.42.28.84.28.84-.28,1.12-.56l4.9-6.85s.28-.7.28-1.12-.28-.7-.56-.98l-20.42-14.41,2.52-3.5h32.31s1.12-.42,1.26-.98l3.36-8.11s.14-.98,0-1.26c-.28-.42-.7-.56-1.12-.56h-30.21c2.38-8.25-.28-15.66-7.41-20.7-3.5-2.52-7.13-3.78-10.91-3.78-6.43,0-12.45,3.78-17.34,10.77l-9.79,13.99s-.28.7-.28,1.12.28.7.56.98l50.91,35.66h0Z"/>
    <path class="cls-3" d="M228.11,309.3c3.5,3.22,6.85,4.62,10.91,4.62,3.78,0,8.11-1.12,14.83-4.2,5.31-2.38,8.25-3.22,10.35-3.22,1.82,0,3.36.7,5.31,2.38,1.82,1.82,2.8,3.78,2.66,6.01,0,2.24-1.12,4.62-3.22,6.85-4.62,5.17-10.91,7.27-14.27,8.25-.42.14-.84.42-.98.98-.14.42,0,.98.28,1.26l5.59,6.85s.7.42,1.12.42h.42c5.45-1.96,10.91-5.73,15.24-10.63,4.06-4.62,6.29-9.65,6.29-14.69s-2.1-9.79-6.29-13.71c-3.92-3.5-7.55-5.03-11.75-5.03-3.78,0-8.25,1.12-14.83,4.06-5.31,2.38-8.39,3.22-10.49,3.22-1.68,0-2.94-.56-4.34-1.82-3.22-3.08-3.08-7.13.7-11.33,2.8-3.22,6.99-5.31,11.47-6.15.42,0,.84-.42,1.12-.84.14-.42,0-.98-.28-1.26l-5.31-6.71s-.7-.42-1.12-.42h-.42c-4.76,1.54-8.95,4.34-12.59,8.53-8.11,8.95-8.25,19.86-.42,26.99"/>
    <path class="cls-3" d="M298.32,302.59s.56.42.98.42h0s.7-.14.98-.42l6.15-5.73s.56-1.4,0-1.82l-42.52-45.59s-.56-.42-.98-.42h0s-.7.14-.98.42l-6.15,5.73s-.56,1.4,0,1.82l42.52,45.59Z"/>
    <path class="cls-3" d="M306.99,225.8l15.1-11.61s.42-.56.56-1.12c0-.42-.14-.84-.42-1.12l-5.73-5.31s-.56-.42-.98-.42c-.28,0-.56,0-.84.28l-37.62,28.95s-.42.56-.42.98,0,.7.28,1.12l4.62,6.15s.7.42,1.12.42c.28,0,.56,0,.84-.28l14.69-11.19,32.31,42.24s.56.42.98.56h.28c.42,0,.56,0,.84-.28l6.85-5.17c.56-.42.7-1.26.28-1.82l-32.31-42.24-.42-.14Z"/>
    <path class="cls-3" d="M371.47,214.2l-13.85,8.25-3.92-22.24c0-.14,17.76,13.99,17.76,13.99ZM351.33,184.83s-.56-.28-.84-.28-.42,0-.7.28l-7.27,4.34s-.7.84-.7,1.4l10.77,66.29s.42.84.84,1.12c.28,0,.42.14.56.14s.42,0,.7-.28l7.41-4.34s.7-.84.56-1.4l-3.22-18.74,20.56-12.17,15.38,12.45s.56.42.84.42c.42,0,.7-.14.98-.42l6.15-5.73s.42-.7.42-1.12-.28-.84-.42-1.12l-51.75-40.7-.28-.14Z"/>
    <path class="cls-3" d="M417.2,181.05c-10.35-.28-12.59-1.4-14.13-5.03-.84-1.82-.84-3.78,0-5.31.84-1.82,2.8-3.5,5.45-4.62,2.38-1.12,4.9-1.54,7.55-1.54,1.82,0,3.64.28,5.31.7h.42c.42,0,.7-.14.98-.42.42-.42.42-.84.42-1.26l-2.1-8.25s-.56-.98-1.12-1.12c-1.12-.14-2.1-.28-3.22-.28-3.92,0-7.83.84-11.89,2.52-11.05,4.76-15.94,14.55-11.75,24.34,3.92,9.09,10.63,10.91,23.22,11.05,10.63.28,12.73,1.54,14.55,5.73,1.12,2.38.98,4.62,0,6.57-1.12,1.96-3.08,3.64-5.73,4.76-3.08,1.26-6.57,1.96-10.35,1.96-1.96,0-3.92-.28-6.01-.56h-.28c-.42,0-.7.14-1.12.42-.42.42-.42.84-.42,1.26l2.24,8.39s.56.98,1.12,1.12c.98,0,1.82.14,2.66.14,5.17,0,10.49-1.12,15.52-3.22,5.59-2.38,9.65-6.01,11.89-10.63,2.24-4.62,2.24-9.79,0-14.97-4.2-9.79-11.05-11.75-23.64-11.89"/>
    <path class="cls-3" d="M561.26,145.8c-9.79-3.5-11.61-5.31-11.89-9.09-.14-1.96.42-3.78,1.68-5.03,1.4-1.54,3.78-2.52,6.71-2.66h1.54c3.78,0,7.69,1.12,11.05,3.22.28.14.42.28.7.28s.42,0,.56-.14c.42-.28.7-.56.7-1.12l.56-8.53s-.28-1.12-.84-1.26c-3.64-1.82-7.55-2.52-11.89-2.52-1.12,0-2.1,0-3.22.14-5.87.42-10.77,2.52-14.13,6.01-3.36,3.5-5.03,8.25-4.62,13.43.84,9.93,6.71,13.57,18.6,17.76,10.07,3.5,11.75,5.31,12.03,10.07.28,2.52-.42,4.62-2.1,6.15s-3.92,2.52-6.85,2.8h-1.96c-6.01,0-11.33-2.38-13.99-3.78-.28,0-.42-.14-.56-.14-.28,0-.42,0-.7.28-.42.28-.7.56-.7,1.12l-.42,8.81s.42,1.12.84,1.26c4.34,1.82,9.37,2.8,14.55,2.8,1.26,0,2.52,0,3.92-.14,6.01-.56,11.05-2.66,14.69-6.43,3.5-3.78,5.17-8.67,4.62-14.27-.98-10.63-6.85-14.55-18.74-18.74"/>
    <path class="cls-3" d="M638.46,118.67l-47.55-1.4h0s-.7.14-.98.42c-.28.28-.42.56-.42.98l-.28,7.69c0,.7.56,1.4,1.26,1.4l18.46.56-1.68,53.15c0,.7.56,1.4,1.26,1.4l8.39.28h0s.7-.14.98-.42c.28-.28.42-.56.42-.98l1.68-53.15,19.02.56h0s.7-.14,1.12-.42c.28-.42.42-.7.42-1.12l-1.12-7.83c.14-.56-.42-1.12-.98-1.12"/>
    <path class="cls-3" d="M707.97,129.02l-8.39-1.4h-.28c-.28,0-.56,0-.84.28-.28.28-.42.42-.56.98l-6.43,37.48c-1.68,9.37-6.15,13.99-13.71,13.99-1.12,0-2.24,0-3.36-.42-11.61-1.96-12.45-11.33-11.19-18.88l6.29-37.06s0-.7-.28-1.12-.42-.42-.98-.56l-8.25-1.4h-.28c-.7,0-1.26.42-1.26,1.12l-6.57,38.18c-2.66,15.94,5.31,27.41,20.7,30.07,1.96.42,3.92.42,5.59.42,12.73,0,21.82-8.25,24.2-22.38l6.43-37.62c.14-.7-.42-1.4-1.12-1.54"/>
    <path class="cls-3" d="M761.82,178.95c-3.36,10.35-9.65,15.66-18.74,15.66-2.94,0-6.15-.56-9.65-1.82l-7.83-2.52,13.85-41.96,8.11,2.66c13.43,4.48,18.6,14.69,14.27,27.97M750.49,141.05l-17.2-5.59h-.42c-.28,0-.42,0-.56.14-.42.14-.56.42-.7.84l-19.44,59.16c-.28.7.14,1.54.84,1.82l16.78,5.45c4.62,1.54,9.37,2.38,13.71,2.38,13.99,0,24.62-8.25,29.23-22.52,6.29-19.44-2.1-34.83-22.24-41.68"/>
    <path class="cls-3" d="M810.77,164.83s-.42-.56-.7-.7l-7.69-3.5s-.42-.14-.56-.14c-.56,0-1.12.42-1.26.84l-25.59,56.78c-.42.7,0,1.54.7,1.82l7.69,3.5s.42.14.56.14h.42c.42-.14.56-.42.7-.7l25.59-56.78c0-.14.14-.84.14-1.26"/>
    <path class="cls-3" d="M855.11,225.52c-5.03,8.39-11.75,13.15-18.74,13.15-3.08,0-6.15-.98-9.09-2.66-9.79-5.87-11.47-17.2-4.06-29.51,5.03-8.39,11.75-13.15,18.74-13.15,3.08,0,6.15.98,9.09,2.66,9.79,5.87,11.47,17.2,4.06,29.51M856.36,187.2c-5.03-2.94-10.21-4.48-15.38-4.48h0c-10.91,0-20.98,6.57-27.83,18.04-10.35,17.2-6.85,34.97,8.53,44.2,5.03,2.94,10.21,4.48,15.38,4.48,10.91,0,20.98-6.57,27.69-18.04,10.49-17.62,7.13-34.97-8.39-44.2"/>
    <path class="cls-3" d="M909.09,249.72c-1.82,2.38-4.06,3.36-6.71,3.36s-5.59-1.26-8.67-3.78l-4.62-3.78,11.75-14.55,5.31,4.2c2.94,2.38,4.62,4.76,5.03,7.27.42,2.52-.42,4.76-2.1,7.27M917.9,256.29c3.78-4.62,5.17-9.65,4.2-14.83-.98-4.9-4.2-9.65-9.37-13.85l-13.15-10.63s-.56-.42-.84-.42h-.14c-.42,0-.7.28-.98.42l-39.16,48.39s-.42.56-.28,1.12c0,.42.28.7.42.98l6.57,5.31s.56.42.84.42h.14s.7-.28.98-.42l15.66-19.44,3.36,2.66-1.96,32.17s.28,1.12.7,1.26l7.83,3.92s.42.14.56.14c.28,0,.42,0,.7-.28.42-.28.56-.56.7-1.12l1.82-30.07c2.52.84,4.76,1.26,7.13,1.26,5.59.14,10.49-2.38,14.27-6.99"/>
    <path class="cls-3" d="M915.38,319.93c5.31,5.73,11.75,8.81,18.32,8.81s12.73-2.8,18.6-8.25l27.83-26.15s.56-1.4,0-1.82l-5.87-6.15s-.56-.42-.98-.42h0s-.7.14-.98.42l-27.55,26.01c-4.06,3.92-8.11,5.73-11.75,5.73s-6.85-1.82-10.07-5.03c-8.11-8.53-3.22-16.64,2.38-21.82l27.41-25.87s.42-.56.42-.98,0-.7-.42-.98l-5.87-6.15s-.56-.42-.98-.42-.7.14-.98.42l-28.25,26.57c-11.75,11.05-12.31,25.03-1.54,36.36"/>
    <path class="cls-3" d="M942.52,346.5s0,.84.28,1.12l4.48,6.71s.7.56,1.12.56c.28,0,.42,0,.7-.14l38.18-21.4-27.27,39.16s-.42,1.12,0,1.54l3.5,5.31s.7.56,1.12.56h.28l46.71-10.07-34.55,27.27s-.7,1.12-.28,1.82l4.62,6.85s.56.56.98.56h.28c.42,0,.56,0,.84-.28l49.09-38.6s.7-1.12.28-1.82l-5.73-8.67s-.7-.56-1.12-.56h-.42l-49.79,11.33,29.65-41.68s.42-1.12,0-1.54l-5.87-8.81s-.7-.56-1.12-.56c-.28,0-.42,0-.7.14l-54.69,30.49s-.56.56-.56.7"/>
    <path class="cls-3" d="M1056.22,502.87l18.88-4.48,1.4,6.01c.98,3.92.84,6.85-.28,9.09-1.12,2.24-3.22,3.64-6.15,4.34-1.12.28-2.1.42-3.08.42-4.62,0-7.97-3.36-9.51-9.93,0,.14-1.26-5.45-1.26-5.45ZM1019.58,500.49s-.28.7-.14,1.12l1.96,8.25c.14.56.7,1.12,1.26,1.12h.42l23.22-5.45,1.12,5.17c1.4,6.01,3.78,10.63,6.99,13.99,3.5,3.5,7.69,5.31,12.73,5.31,1.82,0,3.64-.28,5.45-.7,11.75-2.8,16.78-12.59,13.57-26.29l-3.92-16.08s-.42-.7-.56-.84c-.28-.14-.42-.28-.7-.28h-.42l-60.56,14.41c.28-.28-.42.14-.42.28"/>
    <path class="cls-3" d="M1081.82,562.87l-20,10.49-1.82-15.94,21.82,5.45h0ZM1030.21,538.81s-.56.14-.98.42-.42.7-.42,1.12l.98,8.53s.42,1.12,1.12,1.12l18.46,4.62,2.66,23.78-17.48,8.95c-.56.42-.98,1.12-.7,1.68l2.66,7.97s.42.7.84.84h.42c.28,0,.42,0,.56-.14l58.18-30.77s.84-.84.7-1.4l-.98-8.39s-.42-1.12-.98-1.12l-64.9-17.06c.14,0-.14,0-.14-.14"/>
    <path class="cls-3" d="M1089.79,620.35v6.85c-.42,7.27-3.36,11.05-9.37,11.05h-.42c-8.25-.28-9.23-7.83-9.09-12.31v-5.87l18.88.28h0ZM1099.86,609.86s-.56-.42-.98-.42l-62.24-1.4h0c-.7,0-1.26.56-1.4,1.26l-.28,8.53s.14.7.42.98c.28.28.56.42.98.42l24.9.56v4.34l-26.85,18.04c-.42.42-.7.84-.56,1.4l1.68,8.67s.42.84.84.98h.42c.28,0,.56,0,.84-.28l24.9-16.78c2.8,8.25,8.95,13.01,17.62,13.15h.56c11.61,0,18.6-8.11,18.88-21.68l.42-16.92s-.14-.7-.42-.98"/>
    <path class="cls-3" d="M1096.22,676.01l-60.28-16.08h-.42c-.28,0-.42,0-.7.28-.42.28-.56.42-.56.98l-1.4,7.83c-.14.7.42,1.4.98,1.54l42.38,11.05-46.99,9.23s-.98.56-1.12,1.12l-1.12,6.29s.14,1.12.56,1.4l40.42,25.31-43.64-4.48h-.14c-.7,0-1.12.42-1.26,1.12l-1.4,7.97s0,.84.28,1.12c.28.42.56.42.98.42l62.1,6.43h.14c.56,0,1.12-.42,1.26-1.12l1.82-10.21s-.14-1.12-.56-1.4l-43.78-26.43,50.35-9.23s.98-.56,1.12-1.12l1.82-10.35c.14-.7-.42-1.4-.98-1.54"/>
    <path class="cls-3" d="M1077.06,763.29l-58.88-20.14h-.42c-.56,0-1.12.42-1.26.98l-11.05,32.59v1.12c.14.42.42.56.84.7l7.41,2.52h.42c.56,0,1.12-.42,1.26-.98l7.97-23.22,17.34,5.87-6.29,18.32s0,.84.14,1.12c.14.42.56.56.98.56l7.69,1.26h.28c.56,0,1.12-.42,1.26-.98l5.87-17.2,14.55,4.9-7.55,22.52v1.12c.14.42.42.56.84.7l7.41,2.52h.42c.56,0,1.12-.42,1.26-.98l10.91-31.75c.28-.7-.14-1.54-.84-1.82"/>
    <path class="cls-3" d="M1058.04,815.87l-55.94-27.55s-.42-.14-.56-.14c-.42,0-.98.28-1.12.7l-3.5,6.99s-.28.7,0,1.12c0,.42.42.56.7.84l39.58,19.58-54.41,8.53s-.84.42-1.12.7l-2.8,5.73c-.42.7,0,1.54.56,1.82l55.8,27.55s.42.14.56.14c.42,0,.98-.28,1.12-.84l3.5-6.99s.28-.7,0-1.12c-.14-.42-.42-.56-.7-.84l-38.04-18.88,52.31-8.25s.84-.42,1.12-.7l3.36-6.85c.42-.7,0-1.54-.56-1.82"/>
    <path class="cls-3" d="M1011.47,871.12c-3.22-2.1-6.15-3.22-9.23-3.22-4.9,0-10.07,2.52-16.22,6.43-5.45,3.36-8.53,4.62-10.91,4.62-1.4,0-2.8-.42-4.62-1.68-4.2-2.8-4.62-7.55-1.26-12.59,3.92-5.59,9.65-8.81,12.87-10.07.42-.28.7-.56.84-1.12,0-.42,0-.98-.42-1.26l-6.43-5.87s-.56-.42-.98-.42c-.28,0-.42,0-.56.14-5.17,2.66-9.93,7.27-13.57,12.59-6.99,10.35-5.31,21.82,3.92,27.97,3.5,2.38,6.85,3.5,10.07,3.5,4.34,0,8.95-1.82,16.22-6.29,5.59-3.36,8.67-4.76,10.91-4.76,1.12,0,2.38.42,3.64,1.26,3.78,2.52,3.92,6.71.84,11.33-2.38,3.5-6.01,6.29-10.35,7.69-.42.14-.84.56-.98,1.12,0,.42,0,.98.42,1.26l6.29,5.87s.56.42.98.42c.28,0,.42,0,.56-.14,4.48-2.24,8.25-5.59,11.33-10.35,3.22-4.9,4.62-10.07,4.2-14.69-.56-4.76-3.22-8.81-7.55-11.75"/>
    <path class="cls-3" d="M942.8,887.48s-.56-.42-.84-.42c-.42,0-.84.14-1.12.42l-5.31,6.57s-.42.56-.28.98c0,.42.28.7.42.98l48.39,39.16s.56.42.84.42h.14c.42,0,.7-.28.98-.42l5.31-6.57s.42-1.4-.28-1.82l-48.25-39.3h0Z"/>
    <path class="cls-3" d="M949.23,934.34c-3.64,0-7.83,1.12-14.55,3.78-5.03,1.96-8.11,2.8-10.21,2.8s-3.64-.7-5.45-2.52c-3.64-3.5-3.22-8.25.98-12.59,4.76-4.9,11.05-6.85,14.55-7.55.42,0,.84-.42.98-.84s0-.98-.28-1.26l-5.31-6.85s-.7-.42-1.12-.42h-.42c-5.45,1.82-11.05,5.31-15.52,10.07-4.2,4.48-6.71,9.37-6.85,14.41-.28,5.17,1.82,9.93,5.73,13.85,3.92,3.78,7.55,5.45,12.03,5.45,3.64,0,7.97-1.12,14.41-3.64,5.31-1.96,8.25-2.94,10.35-2.94,1.82,0,3.08.56,4.62,1.96,3.22,3.22,2.8,7.27-1.12,11.33-2.94,3.08-7.13,5.17-11.61,5.87-.42,0-.98.42-1.12.84-.28.42-.14.98.14,1.26l5.17,6.85s.7.56,1.12.56h.42c4.76-1.4,8.95-3.92,13.01-8.11,8.39-8.81,8.95-19.58,1.26-26.99-3.5-3.36-6.99-5.03-11.19-5.03"/>
    <path class="cls-3" d="M130.07,695.87c0,5.03,4.06,9.09,9.09,9.09s9.09-4.06,9.09-9.09-4.06-9.09-9.09-9.09c-5.03,0-9.09,4.06-9.09,9.09"/>
    <path class="cls-3" d="M490.63,156.71c-1.54-1.12-3.36-1.68-5.31-1.68-3.08,0-5.73,1.4-7.55,3.92-2.94,4.06-1.82,9.79,2.24,12.73,1.54,1.12,3.36,1.68,5.31,1.68,3.08,0,5.73-1.4,7.55-3.92,2.8-4.06,1.82-9.79-2.24-12.73"/>
    <path class="cls-3" d="M1031.33,430.14c-1.12,0-2.38.28-3.5.7-4.62,1.82-6.85,7.27-5.03,11.89,1.4,3.5,4.62,5.73,8.39,5.73,1.12,0,2.38-.28,3.36-.7,4.62-1.82,6.85-7.27,5.03-11.89-1.26-3.5-4.62-5.73-8.25-5.73"/>
  </g>
</svg>